# xmcd
#
# Track frame offsets: 
#        182
#        20822
#        43040
#        64522
#        84635
#        105220
#        132707
#        140282
#        164537
#        182302
#        207067
#        230097
#        245270
#        259460
#
# Disc length: 3708 seconds
#
# Revision: 3
# Processed by: cddbd v1.5.2PL0 Copyright (c) Steve Scherf et al.
# Submitted via: ExactAudioCopy v0.95a5
#
DISCID=c10e7a0e
DTITLE=Boyz II Men - k-II
DYEAR=1994
DGENRE=R&B
TTITLE0=Thank You
TTITLE1=All Around The World
TTITLE2=U Know
TTITLE3=Vibin'
TTITLE4=I Sit Away
TTITLE5=Jezzebel
TTITLE6=Khalil (Interlude)
TTITLE7=Trying Times
TTITLE8=I'll Make Love To You
TTITLE9=On Bended Knee
TTITLE10=50 Candles
TTITLE11=Water Runs Dry
TTITLE12=Yesterday
TTITLE13=Fallin'
EXTD=
EXTT0=
EXTT1=
EXTT2=
EXTT3=
EXTT4=
EXTT5=
EXTT6=
EXTT7=
EXTT8=
EXTT9=
EXTT10=
EXTT11=
EXTT12=
EXTT13=
PLAYORDER=
